<mxfile host="app.diagrams.net" modified="2022-05-25T23:16:15.131Z" agent="5.0 (Windows NT 10.0; Win64; x64) AppleWebKit/537.36 (KHTML, like Gecko) Chrome/101.0.4951.67 Safari/537.36" etag="3UK1Jt3AhKvYkIqkhJO4" version="18.1.2" type="github">
  <diagram id="C5RBs43oDa-KdzZeNtuy" name="Page-1">
    <mxGraphModel dx="3197" dy="1380" grid="0" gridSize="10" guides="1" tooltips="1" connect="1" arrows="1" fold="1" page="1" pageScale="1" pageWidth="827" pageHeight="1169" math="0" shadow="0">
      <root>
        <mxCell id="WIyWlLk6GJQsqaUBKTNV-0" />
        <mxCell id="WIyWlLk6GJQsqaUBKTNV-1" parent="WIyWlLk6GJQsqaUBKTNV-0" />
        <mxCell id="epi_BCIH6UxTK0VW4PeA-1" value="" style="rounded=0;whiteSpace=wrap;html=1;fillColor=#363636;" vertex="1" parent="WIyWlLk6GJQsqaUBKTNV-1">
          <mxGeometry x="-129" y="161" width="1920" height="1080" as="geometry" />
        </mxCell>
        <mxCell id="epi_BCIH6UxTK0VW4PeA-2" value="" style="whiteSpace=wrap;html=1;aspect=fixed;labelBackgroundColor=none;strokeColor=#FCFCFC;fillColor=#363636;perimeterSpacing=0;strokeWidth=5;" vertex="1" parent="WIyWlLk6GJQsqaUBKTNV-1">
          <mxGeometry x="-110" y="180" width="220" height="220" as="geometry" />
        </mxCell>
        <mxCell id="epi_BCIH6UxTK0VW4PeA-3" value="" style="rounded=0;whiteSpace=wrap;html=1;fillColor=#363636;strokeWidth=5;strokeColor=#FAFAFA;" vertex="1" parent="WIyWlLk6GJQsqaUBKTNV-1">
          <mxGeometry x="-36" y="1160" width="370" height="60" as="geometry" />
        </mxCell>
        <mxCell id="epi_BCIH6UxTK0VW4PeA-4" value="" style="rounded=0;whiteSpace=wrap;html=1;fillColor=#363636;strokeWidth=5;strokeColor=#FAFAFA;" vertex="1" parent="WIyWlLk6GJQsqaUBKTNV-1">
          <mxGeometry x="-36" y="1080" width="370" height="60" as="geometry" />
        </mxCell>
        <mxCell id="epi_BCIH6UxTK0VW4PeA-5" value="" style="shape=cross;whiteSpace=wrap;html=1;size=0.052777777777777146;strokeWidth=1;fillColor=#0D0D0D;strokeColor=#FCFCFC;" vertex="1" parent="WIyWlLk6GJQsqaUBKTNV-1">
          <mxGeometry x="791" y="661" width="80" height="80" as="geometry" />
        </mxCell>
        <mxCell id="epi_BCIH6UxTK0VW4PeA-9" value="" style="rounded=1;whiteSpace=wrap;html=1;fillColor=#363636;strokeColor=#FAFAFA;strokeWidth=5;" vertex="1" parent="WIyWlLk6GJQsqaUBKTNV-1">
          <mxGeometry x="296" y="180" width="1070" height="50" as="geometry" />
        </mxCell>
        <mxCell id="epi_BCIH6UxTK0VW4PeA-10" value="&lt;font color=&quot;#ffffff&quot;&gt;Health&lt;/font&gt;" style="text;html=1;resizable=0;autosize=1;align=center;verticalAlign=middle;points=[];fillColor=none;strokeColor=none;rounded=0;fontSize=30;" vertex="1" parent="WIyWlLk6GJQsqaUBKTNV-1">
          <mxGeometry x="100.5" y="1090" width="97" height="40" as="geometry" />
        </mxCell>
        <mxCell id="epi_BCIH6UxTK0VW4PeA-11" value="&lt;font color=&quot;#fafafa&quot; style=&quot;font-size: 29px;&quot;&gt;Stamina&lt;/font&gt;" style="text;html=1;resizable=0;autosize=1;align=center;verticalAlign=middle;points=[];fillColor=none;strokeColor=none;rounded=0;fontSize=13;" vertex="1" parent="WIyWlLk6GJQsqaUBKTNV-1">
          <mxGeometry x="93" y="1177.5" width="116" height="26" as="geometry" />
        </mxCell>
        <mxCell id="epi_BCIH6UxTK0VW4PeA-12" value="&lt;font color=&quot;#ffffff&quot;&gt;Mini Map&lt;/font&gt;" style="text;html=1;resizable=0;autosize=1;align=center;verticalAlign=middle;points=[];fillColor=none;strokeColor=none;rounded=0;fontSize=30;" vertex="1" parent="WIyWlLk6GJQsqaUBKTNV-1">
          <mxGeometry x="-66" y="270" width="132" height="40" as="geometry" />
        </mxCell>
        <mxCell id="epi_BCIH6UxTK0VW4PeA-13" value="&lt;font color=&quot;#fafafa&quot;&gt;Compass/ Objectives&lt;/font&gt;" style="text;html=1;resizable=0;autosize=1;align=center;verticalAlign=middle;points=[];fillColor=none;strokeColor=none;rounded=0;fontSize=30;" vertex="1" parent="WIyWlLk6GJQsqaUBKTNV-1">
          <mxGeometry x="685" y="185" width="293" height="40" as="geometry" />
        </mxCell>
        <mxCell id="epi_BCIH6UxTK0VW4PeA-15" value="" style="rounded=0;whiteSpace=wrap;html=1;strokeColor=#F0F0F0;strokeWidth=5;fillColor=#363636;" vertex="1" parent="WIyWlLk6GJQsqaUBKTNV-1">
          <mxGeometry x="1400" y="1160" width="370" height="60" as="geometry" />
        </mxCell>
        <mxCell id="epi_BCIH6UxTK0VW4PeA-16" value="&lt;font color=&quot;#f7f7f7&quot; style=&quot;font-size: 25px;&quot;&gt;Ammunition/ Attack cool down&lt;/font&gt;" style="text;html=1;resizable=0;autosize=1;align=center;verticalAlign=middle;points=[];fillColor=none;strokeColor=none;rounded=0;fontSize=30;" vertex="1" parent="WIyWlLk6GJQsqaUBKTNV-1">
          <mxGeometry x="1413" y="1170" width="344" height="41" as="geometry" />
        </mxCell>
        <mxCell id="epi_BCIH6UxTK0VW4PeA-21" value="" style="whiteSpace=wrap;html=1;aspect=fixed;labelBackgroundColor=none;fontSize=25;fontColor=#F7F7F7;strokeColor=#F0F0F0;strokeWidth=5;fillColor=#363636;" vertex="1" parent="WIyWlLk6GJQsqaUBKTNV-1">
          <mxGeometry x="-110" y="1078" width="60" height="60" as="geometry" />
        </mxCell>
        <mxCell id="epi_BCIH6UxTK0VW4PeA-22" value="" style="whiteSpace=wrap;html=1;aspect=fixed;labelBackgroundColor=none;fontSize=25;fontColor=#F7F7F7;strokeColor=#F0F0F0;strokeWidth=5;fillColor=#363636;" vertex="1" parent="WIyWlLk6GJQsqaUBKTNV-1">
          <mxGeometry x="-110" y="1160.5" width="60" height="60" as="geometry" />
        </mxCell>
        <mxCell id="epi_BCIH6UxTK0VW4PeA-23" value="" style="shape=cross;whiteSpace=wrap;html=1;labelBackgroundColor=none;fontSize=25;fontColor=#F7F7F7;strokeColor=#F0F0F0;strokeWidth=5;fillColor=#363636;size=0.3;" vertex="1" parent="WIyWlLk6GJQsqaUBKTNV-1">
          <mxGeometry x="-100" y="1089" width="40" height="40" as="geometry" />
        </mxCell>
        <mxCell id="epi_BCIH6UxTK0VW4PeA-24" value="" style="verticalLabelPosition=bottom;verticalAlign=top;html=1;shape=mxgraph.basic.heart;labelBackgroundColor=none;fontSize=25;fontColor=#F7F7F7;strokeColor=#F0F0F0;strokeWidth=5;fillColor=#363636;" vertex="1" parent="WIyWlLk6GJQsqaUBKTNV-1">
          <mxGeometry x="-100" y="1169" width="40" height="40" as="geometry" />
        </mxCell>
      </root>
    </mxGraphModel>
  </diagram>
</mxfile>
